<svg width="36" height="36" viewBox="0 0 36 36" fill="none" xmlns="http://www.w3.org/2000/svg">
<path fill-rule="evenodd" clip-rule="evenodd" d="M18 36C27.9411 36 36 27.9411 36 18C36 8.05887 27.9411 0 18 0C8.05887 0 0 8.05887 0 18C0 27.9411 8.05887 36 18 36ZM14.7143 10C11.5549 10 9 12.5712 9 15.7352C9 16.9154 9.57227 18.0578 10.2103 18.9924C10.8617 19.9467 11.6641 20.8019 12.2827 21.4231L15.9192 25.0753C17.1469 26.3082 19.1388 26.3082 20.3665 25.0753L24.003 21.4231C24.6114 20.8121 25.4135 19.9572 26.0672 19.0008C26.7068 18.0652 27.2857 16.9168 27.2857 15.7352C27.2857 12.5712 24.7308 10 21.5714 10C20.285 10 19.0973 10.4274 18.1429 11.1467C17.1884 10.4274 16.0007 10 14.7143 10Z" fill="white"/>
</svg>
